<?xml version="1.0" encoding="UTF-8" standalone="no"?>
<!DOCTYPE svg PUBLIC "-//W3C//DTD SVG 1.1//EN"
"http://www.w3.org/Graphics/SVG/1.1/DTD/svg11.dtd">
<svg viewBox="0 0 670 996" version="1.1" xmlns="http://www.w3.org/2000/svg" xmlns:xlink="http://www.w3.org/1999/xlink">
<defs>
<clipPath id="c0_6"><path d="M0,996.1V0H670.8V996.1Z"/></clipPath>
<clipPath id="c1_6"><path d="M205.9,483V245.2H465.5V483Z"/></clipPath>
<style type="text/css"><![CDATA[
.g0_6{
fill: #EAEAEA;
}
]]></style>
</defs>
<g clip-path="url(#c0_6)">
<path fill-rule="evenodd" d="M59,-39.4L-33.1,94.9L59,229.4L151.3,94.9Z" class="g0_6"/>
<path fill-rule="evenodd" d="M243.5,-39.4L151.3,94.9l92.2,134.5L335.7,94.9Z" class="g0_6"/>
<path fill-rule="evenodd" d="M427.8,-39.4L335.7,94.9l92.1,134.5L519.9,94.9Z" class="g0_6"/>
<path fill-rule="evenodd" d="M612.1,-39.4L519.9,94.9l92.2,134.5L704.4,94.9Z" class="g0_6"/>
<path fill-rule="evenodd" d="M59,229.4L-33.1,363.8L59,498.3L151.3,363.8Z" class="g0_6"/>
</g>
<path fill-rule="evenodd" d="M243.5,229.4L151.3,363.8l92.2,134.5L335.7,363.8Z" class="g0_6"/>
<path fill-rule="evenodd" d="M427.8,229.4L335.7,363.8l92.1,134.5L519.9,363.8Z" class="g0_6"/>
<g clip-path="url(#c0_6)">
<path fill-rule="evenodd" d="M612.1,229.4L519.9,363.8l92.2,134.5L704.4,363.8Z" class="g0_6"/>
<path fill-rule="evenodd" d="M59,498.3L-33.1,632.6L59,767L151.3,632.6Z" class="g0_6"/>
</g>
<path fill-rule="evenodd" d="M243.5,498.3L151.3,632.6L243.5,767L335.7,632.6Z" class="g0_6"/>
<path fill-rule="evenodd" d="M427.8,498.3L335.7,632.6L427.8,767L519.9,632.6Z" class="g0_6"/>
<g clip-path="url(#c0_6)">
<path fill-rule="evenodd" d="M612.1,498.3L519.9,632.6L612.1,767L704.4,632.6Z" class="g0_6"/>
<path fill-rule="evenodd" d="M59,767L-33.1,901.5L59,1035.9L151.3,901.5Z" class="g0_6"/>
<path fill-rule="evenodd" d="M243.5,767L151.3,901.5l92.2,134.4L335.7,901.5Z" class="g0_6"/>
<path fill-rule="evenodd" d="M427.8,767L335.7,901.5l92.1,134.4L519.9,901.5Z" class="g0_6"/>
<path fill-rule="evenodd" d="M612.1,767L519.9,901.5l92.2,134.4L704.4,901.5Z" class="g0_6"/>
<path fill-rule="evenodd" d="M59,-39.4L-33.1,94.9L59,229.4L151.3,94.9Z" class="g0_6"/>
<path fill-rule="evenodd" d="M243.5,-39.4L151.3,94.9l92.2,134.5L335.7,94.9Z" class="g0_6"/>
<path fill-rule="evenodd" d="M427.8,-39.4L335.7,94.9l92.1,134.5L519.9,94.9Z" class="g0_6"/>
<path fill-rule="evenodd" d="M612.1,-39.4L519.9,94.9l92.2,134.5L704.4,94.9Z" class="g0_6"/>
<path fill-rule="evenodd" d="M59,229.4L-33.1,363.8L59,498.3L151.3,363.8Z" class="g0_6"/>
</g>
<path fill-rule="evenodd" d="M243.5,229.4L151.3,363.8l92.2,134.5L335.7,363.8Z" class="g0_6"/>
<path fill-rule="evenodd" d="M427.8,229.4L335.7,363.8l92.1,134.5L519.9,363.8Z" class="g0_6"/>
<g clip-path="url(#c0_6)">
<path fill-rule="evenodd" d="M612.1,229.4L519.9,363.8l92.2,134.5L704.4,363.8Z" class="g0_6"/>
<path fill-rule="evenodd" d="M59,498.3L-33.1,632.6L59,767L151.3,632.6Z" class="g0_6"/>
</g>
<path fill-rule="evenodd" d="M243.5,498.3L151.3,632.6L243.5,767L335.7,632.6Z" class="g0_6"/>
<path fill-rule="evenodd" d="M427.8,498.3L335.7,632.6L427.8,767L519.9,632.6Z" class="g0_6"/>
<g clip-path="url(#c0_6)">
<path fill-rule="evenodd" d="M612.1,498.3L519.9,632.6L612.1,767L704.4,632.6Z" class="g0_6"/>
<path fill-rule="evenodd" d="M59,767L-33.1,901.5L59,1035.9L151.3,901.5Z" class="g0_6"/>
<path fill-rule="evenodd" d="M243.5,767L151.3,901.5l92.2,134.4L335.7,901.5Z" class="g0_6"/>
<path fill-rule="evenodd" d="M427.8,767L335.7,901.5l92.1,134.4L519.9,901.5Z" class="g0_6"/>
<path fill-rule="evenodd" d="M612.1,767L519.9,901.5l92.2,134.4L704.4,901.5Z" class="g0_6"/>
<path fill-rule="evenodd" d="M59,-39.4L-33.1,94.9L59,229.4L151.3,94.9Z" class="g0_6"/>
<path fill-rule="evenodd" d="M243.5,-39.4L151.3,94.9l92.2,134.5L335.7,94.9Z" class="g0_6"/>
<path fill-rule="evenodd" d="M427.8,-39.4L335.7,94.9l92.1,134.5L519.9,94.9Z" class="g0_6"/>
<path fill-rule="evenodd" d="M612.1,-39.4L519.9,94.9l92.2,134.5L704.4,94.9Z" class="g0_6"/>
<path fill-rule="evenodd" d="M59,229.4L-33.1,363.8L59,498.3L151.3,363.8Z" class="g0_6"/>
</g>
<path fill-rule="evenodd" d="M243.5,229.4L151.3,363.8l92.2,134.5L335.7,363.8Z" class="g0_6"/>
<path fill-rule="evenodd" d="M427.8,229.4L335.7,363.8l92.1,134.5L519.9,363.8Z" class="g0_6"/>
<g clip-path="url(#c0_6)">
<path fill-rule="evenodd" d="M612.1,229.4L519.9,363.8l92.2,134.5L704.4,363.8Z" class="g0_6"/>
<path fill-rule="evenodd" d="M59,498.3L-33.1,632.6L59,767L151.3,632.6Z" class="g0_6"/>
</g>
<path fill-rule="evenodd" d="M243.5,498.3L151.3,632.6L243.5,767L335.7,632.6Z" class="g0_6"/>
<path fill-rule="evenodd" d="M427.8,498.3L335.7,632.6L427.8,767L519.9,632.6Z" class="g0_6"/>
<g clip-path="url(#c0_6)">
<path fill-rule="evenodd" d="M612.1,498.3L519.9,632.6L612.1,767L704.4,632.6Z" class="g0_6"/>
<path fill-rule="evenodd" d="M59,767L-33.1,901.5L59,1035.9L151.3,901.5Z" class="g0_6"/>
<path fill-rule="evenodd" d="M243.5,767L151.3,901.5l92.2,134.4L335.7,901.5Z" class="g0_6"/>
<path fill-rule="evenodd" d="M427.8,767L335.7,901.5l92.1,134.4L519.9,901.5Z" class="g0_6"/>
<path fill-rule="evenodd" d="M612.1,767L519.9,901.5l92.2,134.4L704.4,901.5Z" class="g0_6"/>
<path fill-rule="evenodd" d="M59,-39.4L-33.1,94.9L59,229.4L151.3,94.9Z" class="g0_6"/>
<path fill-rule="evenodd" d="M243.5,-39.4L151.3,94.9l92.2,134.5L335.7,94.9Z" class="g0_6"/>
<path fill-rule="evenodd" d="M427.8,-39.4L335.7,94.9l92.1,134.5L519.9,94.9Z" class="g0_6"/>
<path fill-rule="evenodd" d="M612.1,-39.4L519.9,94.9l92.2,134.5L704.4,94.9Z" class="g0_6"/>
<path fill-rule="evenodd" d="M59,229.4L-33.1,363.8L59,498.3L151.3,363.8Z" class="g0_6"/>
</g>
<path fill-rule="evenodd" d="M243.5,229.4L151.3,363.8l92.2,134.5L335.7,363.8Z" class="g0_6"/>
<path fill-rule="evenodd" d="M427.8,229.4L335.7,363.8l92.1,134.5L519.9,363.8Z" class="g0_6"/>
<g clip-path="url(#c0_6)">
<path fill-rule="evenodd" d="M612.1,229.4L519.9,363.8l92.2,134.5L704.4,363.8Z" class="g0_6"/>
<path fill-rule="evenodd" d="M59,498.3L-33.1,632.6L59,767L151.3,632.6Z" class="g0_6"/>
</g>
<path fill-rule="evenodd" d="M243.5,498.3L151.3,632.6L243.5,767L335.7,632.6Z" class="g0_6"/>
<path fill-rule="evenodd" d="M427.8,498.3L335.7,632.6L427.8,767L519.9,632.6Z" class="g0_6"/>
<g clip-path="url(#c0_6)">
<path fill-rule="evenodd" d="M612.1,498.3L519.9,632.6L612.1,767L704.4,632.6Z" class="g0_6"/>
<path fill-rule="evenodd" d="M59,767L-33.1,901.5L59,1035.9L151.3,901.5Z" class="g0_6"/>
<path fill-rule="evenodd" d="M243.5,767L151.3,901.5l92.2,134.4L335.7,901.5Z" class="g0_6"/>
<path fill-rule="evenodd" d="M427.8,767L335.7,901.5l92.1,134.4L519.9,901.5Z" class="g0_6"/>
<path fill-rule="evenodd" d="M612.1,767L519.9,901.5l92.2,134.4L704.4,901.5Z" class="g0_6"/>
<path fill-rule="evenodd" d="M59,-39.4L-33.1,94.9L59,229.4L151.3,94.9Z" class="g0_6"/>
<path fill-rule="evenodd" d="M243.5,-39.4L151.3,94.9l92.2,134.5L335.7,94.9Z" class="g0_6"/>
<path fill-rule="evenodd" d="M427.8,-39.4L335.7,94.9l92.1,134.5L519.9,94.9Z" class="g0_6"/>
<path fill-rule="evenodd" d="M612.1,-39.4L519.9,94.9l92.2,134.5L704.4,94.9Z" class="g0_6"/>
<path fill-rule="evenodd" d="M59,229.4L-33.1,363.8L59,498.3L151.3,363.8Z" class="g0_6"/>
</g>
<path fill-rule="evenodd" d="M243.5,229.4L151.3,363.8l92.2,134.5L335.7,363.8Z" class="g0_6"/>
<path fill-rule="evenodd" d="M427.8,229.4L335.7,363.8l92.1,134.5L519.9,363.8Z" class="g0_6"/>
<g clip-path="url(#c0_6)">
<path fill-rule="evenodd" d="M612.1,229.4L519.9,363.8l92.2,134.5L704.4,363.8Z" class="g0_6"/>
<path fill-rule="evenodd" d="M59,498.3L-33.1,632.6L59,767L151.3,632.6Z" class="g0_6"/>
</g>
<path fill-rule="evenodd" d="M243.5,498.3L151.3,632.6L243.5,767L335.7,632.6Z" class="g0_6"/>
<path fill-rule="evenodd" d="M427.8,498.3L335.7,632.6L427.8,767L519.9,632.6Z" class="g0_6"/>
<g clip-path="url(#c0_6)">
<path fill-rule="evenodd" d="M612.1,498.3L519.9,632.6L612.1,767L704.4,632.6Z" class="g0_6"/>
<path fill-rule="evenodd" d="M59,767L-33.1,901.5L59,1035.9L151.3,901.5Z" class="g0_6"/>
<path fill-rule="evenodd" d="M243.5,767L151.3,901.5l92.2,134.4L335.7,901.5Z" class="g0_6"/>
<path fill-rule="evenodd" d="M427.8,767L335.7,901.5l92.1,134.4L519.9,901.5Z" class="g0_6"/>
<path fill-rule="evenodd" d="M612.1,767L519.9,901.5l92.2,134.4L704.4,901.5Z" class="g0_6"/>
<path fill-rule="evenodd" d="M59,-39.4L-33.1,94.9L59,229.4L151.3,94.9Z" class="g0_6"/>
<path fill-rule="evenodd" d="M243.5,-39.4L151.3,94.9l92.2,134.5L335.7,94.9Z" class="g0_6"/>
<path fill-rule="evenodd" d="M427.8,-39.4L335.7,94.9l92.1,134.5L519.9,94.9Z" class="g0_6"/>
<path fill-rule="evenodd" d="M612.1,-39.4L519.9,94.9l92.2,134.5L704.4,94.9Z" class="g0_6"/>
<path fill-rule="evenodd" d="M59,229.4L-33.1,363.8L59,498.3L151.3,363.8Z" class="g0_6"/>
</g>
<path fill-rule="evenodd" d="M243.5,229.4L151.3,363.8l92.2,134.5L335.7,363.8Z" class="g0_6"/>
<path fill-rule="evenodd" d="M427.8,229.4L335.7,363.8l92.1,134.5L519.9,363.8Z" class="g0_6"/>
<g clip-path="url(#c0_6)">
<path fill-rule="evenodd" d="M612.1,229.4L519.9,363.8l92.2,134.5L704.4,363.8Z" class="g0_6"/>
<path fill-rule="evenodd" d="M59,498.3L-33.1,632.6L59,767L151.3,632.6Z" class="g0_6"/>
</g>
<path fill-rule="evenodd" d="M243.5,498.3L151.3,632.6L243.5,767L335.7,632.6Z" class="g0_6"/>
<path fill-rule="evenodd" d="M427.8,498.3L335.7,632.6L427.8,767L519.9,632.6Z" class="g0_6"/>
<g clip-path="url(#c0_6)">
<path fill-rule="evenodd" d="M612.1,498.3L519.9,632.6L612.1,767L704.4,632.6Z" class="g0_6"/>
<path fill-rule="evenodd" d="M59,767L-33.1,901.5L59,1035.9L151.3,901.5Z" class="g0_6"/>
<path fill-rule="evenodd" d="M243.5,767L151.3,901.5l92.2,134.4L335.7,901.5Z" class="g0_6"/>
<path fill-rule="evenodd" d="M427.8,767L335.7,901.5l92.1,134.4L519.9,901.5Z" class="g0_6"/>
<path fill-rule="evenodd" d="M612.1,767L519.9,901.5l92.2,134.4L704.4,901.5Z" class="g0_6"/>
</g>
<g clip-path="url(#c1_6)">
<image preserveAspectRatio="none" x="235" y="245" width="193" height="61" xlink:href="img/1.png"/>
<image preserveAspectRatio="none" x="235" y="304" width="193" height="1" xlink:href="img/2.png"/>
<image preserveAspectRatio="none" x="235" y="305" width="193" height="1" xlink:href="img/3.png"/>
<image preserveAspectRatio="none" x="235" y="306" width="193" height="1" xlink:href="img/4.png"/>
<image preserveAspectRatio="none" x="234" y="307" width="195" height="1" xlink:href="img/5.png"/>
<image preserveAspectRatio="none" x="234" y="308" width="196" height="1" xlink:href="img/6.png"/>
<image preserveAspectRatio="none" x="233" y="309" width="197" height="1" xlink:href="img/7.png"/>
<image preserveAspectRatio="none" x="232" y="310" width="22" height="1" xlink:href="img/8.png"/>
<image preserveAspectRatio="none" x="255" y="310" width="176" height="1" xlink:href="img/9.png"/>
<image preserveAspectRatio="none" x="232" y="311" width="22" height="1" xlink:href="img/10.png"/>
<image preserveAspectRatio="none" x="255" y="311" width="176" height="1" xlink:href="img/11.png"/>
<image preserveAspectRatio="none" x="232" y="312" width="22" height="1" xlink:href="img/12.png"/>
<image preserveAspectRatio="none" x="255" y="312" width="177" height="1" xlink:href="img/13.png"/>
<image preserveAspectRatio="none" x="232" y="313" width="22" height="1" xlink:href="img/14.png"/>
<image preserveAspectRatio="none" x="255" y="313" width="177" height="1" xlink:href="img/15.png"/>
<image preserveAspectRatio="none" x="231" y="314" width="201" height="1" xlink:href="img/16.png"/>
<image preserveAspectRatio="none" x="227" y="313" width="213" height="13" xlink:href="img/17.png"/>
<image preserveAspectRatio="none" x="228" y="325" width="211" height="1" xlink:href="img/18.png"/>
<image preserveAspectRatio="none" x="228" y="326" width="25" height="1" xlink:href="img/19.png"/>
<image preserveAspectRatio="none" x="254" y="326" width="92" height="1" xlink:href="img/20.png"/>
<image preserveAspectRatio="none" x="347" y="326" width="92" height="1" xlink:href="img/21.png"/>
<image preserveAspectRatio="none" x="227" y="327" width="75" height="1" xlink:href="img/22.png"/>
<image preserveAspectRatio="none" x="304" y="327" width="135" height="1" xlink:href="img/23.png"/>
<image preserveAspectRatio="none" x="227" y="328" width="75" height="1" xlink:href="img/24.png"/>
<image preserveAspectRatio="none" x="304" y="328" width="135" height="1" xlink:href="img/25.png"/>
<image preserveAspectRatio="none" x="227" y="329" width="213" height="1" xlink:href="img/26.jpg"/>
<image preserveAspectRatio="none" x="227" y="330" width="214" height="2" xlink:href="img/27.jpg"/>
<image preserveAspectRatio="none" x="226" y="332" width="215" height="2" xlink:href="img/28.jpg"/>
<image preserveAspectRatio="none" x="225" y="334" width="216" height="1" xlink:href="img/29.png"/>
<image preserveAspectRatio="none" x="225" y="335" width="217" height="1" xlink:href="img/30.png"/>
<image preserveAspectRatio="none" x="226" y="336" width="216" height="1" xlink:href="img/31.png"/>
<image preserveAspectRatio="none" x="225" y="337" width="217" height="1" xlink:href="img/32.jpg"/>
<image preserveAspectRatio="none" x="225" y="338" width="218" height="1" xlink:href="img/33.png"/>
<image preserveAspectRatio="none" x="225" y="339" width="219" height="1" xlink:href="img/34.png"/>
<image preserveAspectRatio="none" x="224" y="340" width="220" height="3" xlink:href="img/35.jpg"/>
<image preserveAspectRatio="none" x="224" y="343" width="220" height="3" xlink:href="img/36.jpg"/>
<image preserveAspectRatio="none" x="224" y="346" width="221" height="6" xlink:href="img/37.jpg"/>
<image preserveAspectRatio="none" x="224" y="352" width="17" height="1" xlink:href="img/38.png"/>
<image preserveAspectRatio="none" x="241" y="352" width="204" height="1" xlink:href="img/39.png"/>
<image preserveAspectRatio="none" x="224" y="353" width="221" height="1" xlink:href="img/40.png"/>
<image preserveAspectRatio="none" x="224" y="354" width="222" height="10" xlink:href="img/41.jpg"/>
<image preserveAspectRatio="none" x="224" y="364" width="222" height="1" xlink:href="img/42.png"/>
<image preserveAspectRatio="none" x="224" y="365" width="223" height="2" xlink:href="img/43.jpg"/>
<image preserveAspectRatio="none" x="224" y="367" width="222" height="3" xlink:href="img/44.jpg"/>
<image preserveAspectRatio="none" x="225" y="370" width="221" height="3" xlink:href="img/45.jpg"/>
<image preserveAspectRatio="none" x="225" y="373" width="222" height="2" xlink:href="img/46.jpg"/>
<image preserveAspectRatio="none" x="226" y="375" width="221" height="1" xlink:href="img/47.jpg"/>
<image preserveAspectRatio="none" x="226" y="376" width="220" height="2" xlink:href="img/48.jpg"/>
<image preserveAspectRatio="none" x="227" y="378" width="218" height="3" xlink:href="img/49.jpg"/>
<image preserveAspectRatio="none" x="227" y="381" width="217" height="1" xlink:href="img/50.png"/>
<image preserveAspectRatio="none" x="228" y="382" width="216" height="3" xlink:href="img/51.jpg"/>
<image preserveAspectRatio="none" x="229" y="385" width="215" height="2" xlink:href="img/52.jpg"/>
<image preserveAspectRatio="none" x="230" y="387" width="214" height="2" xlink:href="img/53.jpg"/>
<image preserveAspectRatio="none" x="230" y="389" width="214" height="3" xlink:href="img/54.jpg"/>
<image preserveAspectRatio="none" x="231" y="392" width="212" height="1" xlink:href="img/55.png"/>
<image preserveAspectRatio="none" x="231" y="393" width="211" height="2" xlink:href="img/56.jpg"/>
<image preserveAspectRatio="none" x="232" y="395" width="209" height="2" xlink:href="img/57.jpg"/>
<image preserveAspectRatio="none" x="232" y="397" width="209" height="2" xlink:href="img/58.jpg"/>
<image preserveAspectRatio="none" x="232" y="399" width="209" height="1" xlink:href="img/59.png"/>
<image preserveAspectRatio="none" x="233" y="400" width="208" height="2" xlink:href="img/60.jpg"/>
<image preserveAspectRatio="none" x="234" y="402" width="207" height="1" xlink:href="img/61.png"/>
<image preserveAspectRatio="none" x="234" y="403" width="206" height="1" xlink:href="img/62.jpg"/>
<image preserveAspectRatio="none" x="235" y="404" width="205" height="2" xlink:href="img/63.jpg"/>
<image preserveAspectRatio="none" x="235" y="406" width="204" height="1" xlink:href="img/64.jpg"/>
<image preserveAspectRatio="none" x="236" y="407" width="203" height="1" xlink:href="img/65.png"/>
<image preserveAspectRatio="none" x="236" y="408" width="203" height="1" xlink:href="img/66.jpg"/>
<image preserveAspectRatio="none" x="237" y="409" width="202" height="1" xlink:href="img/67.png"/>
<image preserveAspectRatio="none" x="237" y="410" width="201" height="1" xlink:href="img/68.png"/>
<image preserveAspectRatio="none" x="238" y="411" width="199" height="1" xlink:href="img/69.png"/>
<image preserveAspectRatio="none" x="238" y="412" width="198" height="1" xlink:href="img/70.png"/>
<image preserveAspectRatio="none" x="238" y="413" width="198" height="1" xlink:href="img/71.jpg"/>
<image preserveAspectRatio="none" x="238" y="414" width="197" height="1" xlink:href="img/72.png"/>
<image preserveAspectRatio="none" x="238" y="415" width="196" height="1" xlink:href="img/73.png"/>
<image preserveAspectRatio="none" x="238" y="416" width="197" height="3" xlink:href="img/74.jpg"/>
<image preserveAspectRatio="none" x="239" y="419" width="196" height="1" xlink:href="img/75.jpg"/>
<image preserveAspectRatio="none" x="240" y="420" width="194" height="3" xlink:href="img/76.jpg"/>
<image preserveAspectRatio="none" x="240" y="423" width="193" height="2" xlink:href="img/77.jpg"/>
<image preserveAspectRatio="none" x="240" y="425" width="193" height="2" xlink:href="img/78.jpg"/>
<image preserveAspectRatio="none" x="241" y="427" width="191" height="1" xlink:href="img/79.jpg"/>
<image preserveAspectRatio="none" x="241" y="428" width="190" height="1" xlink:href="img/80.png"/>
<image preserveAspectRatio="none" x="241" y="429" width="190" height="1" xlink:href="img/81.png"/>
<image preserveAspectRatio="none" x="242" y="430" width="189" height="1" xlink:href="img/82.png"/>
<image preserveAspectRatio="none" x="243" y="431" width="187" height="1" xlink:href="img/83.png"/>
<image preserveAspectRatio="none" x="243" y="432" width="187" height="1" xlink:href="img/84.jpg"/>
<image preserveAspectRatio="none" x="243" y="433" width="186" height="2" xlink:href="img/85.jpg"/>
<image preserveAspectRatio="none" x="243" y="435" width="31" height="1" xlink:href="img/86.png"/>
<image preserveAspectRatio="none" x="274" y="435" width="154" height="1" xlink:href="img/87.png"/>
<image preserveAspectRatio="none" x="243" y="436" width="185" height="2" xlink:href="img/88.jpg"/>
<image preserveAspectRatio="none" x="243" y="438" width="184" height="1" xlink:href="img/89.jpg"/>
<image preserveAspectRatio="none" x="243" y="439" width="183" height="1" xlink:href="img/90.png"/>
<image preserveAspectRatio="none" x="243" y="440" width="8" height="1" xlink:href="img/91.png"/>
<image preserveAspectRatio="none" x="252" y="440" width="174" height="1" xlink:href="img/92.png"/>
<image preserveAspectRatio="none" x="244" y="441" width="6" height="1" xlink:href="img/93.png"/>
<image preserveAspectRatio="none" x="253" y="441" width="172" height="1" xlink:href="img/94.png"/>
<image preserveAspectRatio="none" x="253" y="442" width="172" height="1" xlink:href="img/95.jpg"/>
<image preserveAspectRatio="none" x="252" y="443" width="173" height="1" xlink:href="img/96.png"/>
<image preserveAspectRatio="none" x="252" y="444" width="173" height="2" xlink:href="img/97.jpg"/>
<image preserveAspectRatio="none" x="252" y="446" width="172" height="3" xlink:href="img/98.jpg"/>
<image preserveAspectRatio="none" x="251" y="449" width="173" height="1" xlink:href="img/99.png"/>
<image preserveAspectRatio="none" x="250" y="450" width="175" height="1" xlink:href="img/100.png"/>
<image preserveAspectRatio="none" x="249" y="451" width="176" height="1" xlink:href="img/101.png"/>
<image preserveAspectRatio="none" x="249" y="452" width="176" height="1" xlink:href="img/102.jpg"/>
<image preserveAspectRatio="none" x="248" y="453" width="177" height="1" xlink:href="img/103.png"/>
<image preserveAspectRatio="none" x="247" y="454" width="178" height="2" xlink:href="img/104.jpg"/>
<image preserveAspectRatio="none" x="246" y="456" width="179" height="2" xlink:href="img/105.jpg"/>
<image preserveAspectRatio="none" x="246" y="458" width="179" height="2" xlink:href="img/106.jpg"/>
<image preserveAspectRatio="none" x="246" y="460" width="180" height="1" xlink:href="img/107.jpg"/>
<image preserveAspectRatio="none" x="245" y="461" width="181" height="1" xlink:href="img/108.png"/>
<image preserveAspectRatio="none" x="243" y="462" width="183" height="1" xlink:href="img/109.png"/>
<image preserveAspectRatio="none" x="240" y="463" width="186" height="1" xlink:href="img/110.png"/>
<image preserveAspectRatio="none" x="229" y="464" width="198" height="1" xlink:href="img/111.png"/>
<image preserveAspectRatio="none" x="226" y="465" width="205" height="1" xlink:href="img/112.png"/>
<image preserveAspectRatio="none" x="221" y="466" width="215" height="1" xlink:href="img/113.png"/>
<image preserveAspectRatio="none" x="220" y="467" width="218" height="1" xlink:href="img/114.png"/>
<image preserveAspectRatio="none" x="219" y="468" width="222" height="1" xlink:href="img/115.png"/>
<image preserveAspectRatio="none" x="217" y="469" width="230" height="1" xlink:href="img/116.png"/>
<image preserveAspectRatio="none" x="217" y="470" width="233" height="1" xlink:href="img/117.png"/>
<image preserveAspectRatio="none" x="219" y="471" width="233" height="1" xlink:href="img/118.png"/>
<image preserveAspectRatio="none" x="227" y="471" width="227" height="14" xlink:href="img/119.png"/>
</g>
<image preserveAspectRatio="none" x="304" y="701" width="64" height="81" xlink:href="img/120.jpg"/>
</svg>