<?xml version="1.0" encoding="UTF-8" standalone="no"?>
<!DOCTYPE svg PUBLIC "-//W3C//DTD SVG 1.1//EN"
"http://www.w3.org/Graphics/SVG/1.1/DTD/svg11.dtd">
<svg viewBox="0 0 670 996" version="1.1" xmlns="http://www.w3.org/2000/svg" xmlns:xlink="http://www.w3.org/1999/xlink">
<defs>
<style type="text/css"><![CDATA[
.g0_12{
}
.g1_12{
fill: none;
stroke: #FFFFFF;
stroke-width: 1.527;
stroke-linecap: round;
stroke-linejoin: miter;
stroke-miterlimit: 8;
}
]]></style>
<path d="M681,0L568,357L202,276L455,552L202,828L568,747l113,357L793,747l366,81L906,552L1159,276L793,357L681,0Z"
id="f0_42"
transform="scale(0.001,-0.001)"/>

</defs>
<path fill-rule="evenodd" d="M76.2,52.7l1.1,6.2l-4.5,2L78,62.7L79.1,69l2.1,-5.1l5.2,1.9l-3.9,-5l2.1,-5.1l-4.6,2Z" class="g0_12"/>
<path d="M76.2,52.7l1.1,6.2l-4.5,2L78,62.7L79.1,69l2.1,-5.1l5.2,1.9l-3.9,-5l2.1,-5.1l-4.6,2Z" class="g1_12"/>
<path fill-rule="evenodd" d="M89.8,65.9l-2.4,5.7l-4.9,-.7l3.4,4.4l-2.4,5.8L88,78l3.3,4.3L90.8,76l4.5,-3.2l-4.9,-.7Z" class="g0_12"/>
<path d="M89.8,65.9l-2.4,5.7l-4.9,-.7l3.4,4.4l-2.4,5.8L88,78l3.3,4.3L90.8,76l4.5,-3.2l-4.9,-.7Z" class="g1_12"/>
<path fill-rule="evenodd" d="M92.8,56l2.3,4.5l-3.3,3.1l4.7,-.2L98.8,68l.7,-4.6l4.6,-.2L99.8,60.5l.7,-4.8l-3.4,3Z" class="g0_12"/>
<path d="M92.8,56l2.3,4.5l-3.3,3.1l4.7,-.2L98.8,68l.7,-4.6l4.6,-.2L99.8,60.5l.7,-4.8l-3.4,3Z" class="g1_12"/>
<path fill-rule="evenodd" d="M595.2,52.7l-1.1,6.2l4.6,2l-5.3,1.8l-1,6.3l-2.2,-5.1L585,65.8l3.9,-5l-2.1,-5.1l4.5,2Z" class="g0_12"/>
<path d="M595.2,52.7l-1.1,6.2l4.6,2l-5.3,1.8l-1,6.3l-2.2,-5.1L585,65.8l3.9,-5l-2.1,-5.1l4.5,2Z" class="g1_12"/>
<path fill-rule="evenodd" d="M581.5,65.9l2.5,5.7l4.9,-.7l-3.4,4.4l2.4,5.8L583.4,78l-3.3,4.3l.5,-6.3L576,72.8l5,-.7Z" class="g0_12"/>
<path d="M581.5,65.9l2.5,5.7l4.9,-.7l-3.4,4.4l2.4,5.8L583.4,78l-3.3,4.3l.5,-6.3L576,72.8l5,-.7Z" class="g1_12"/>
<path fill-rule="evenodd" d="M578.6,56l-2.3,4.5l3.3,3.1l-4.8,-.2L572.6,68l-.7,-4.6l-4.7,-.2l4.3,-2.7L571,55.7l3.3,3Z" class="g0_12"/>
<path d="M578.6,56l-2.3,4.5l3.3,3.1l-4.8,-.2L572.6,68l-.7,-4.6l-4.7,-.2l4.3,-2.7L571,55.7l3.3,3Z" class="g1_12"/>
<g fill="#000000" >
<use xlink:href="#f0_42" transform="matrix(8,0,0,8,306.4,904.6)"/>
<use xlink:href="#f0_42" transform="matrix(8,0,0,8,354.1,904.6)"/>
</g>
</svg>